<?xml version="1.0" encoding="utf-8"?>
<!-- Generator: Adobe Illustrator 16.0.4, SVG Export Plug-In . SVG Version: 6.00 Build 0)  -->
<!DOCTYPE svg PUBLIC "-//W3C//DTD SVG 1.1//EN" "http://www.w3.org/Graphics/SVG/1.1/DTD/svg11.dtd">
<svg version="1.1" id="Layer_1" xmlns="http://www.w3.org/2000/svg" xmlns:xlink="http://www.w3.org/1999/xlink" x="0px" y="0px"
	 width="256px" height="256px" viewBox="0 0 256 256" enable-background="new 0 0 256 256" xml:space="preserve">
<radialGradient id="SVGID_1_" cx="128.1797" cy="222.1133" r="35.1665" gradientTransform="matrix(1 0 0 0.3 0 155.4793)" gradientUnits="userSpaceOnUse">
	<stop  offset="0" style="stop-color:#FFFFFF;stop-opacity:0"/>
	<stop  offset="0.25" style="stop-color:#263238;stop-opacity:0.5"/>
	<stop  offset="0.375" style="stop-color:#272F34;stop-opacity:0.8"/>
	<stop  offset="0.5" style="stop-color:#282B2F;stop-opacity:0.5"/>
	<stop  offset="0.7" style="stop-color:#000000;stop-opacity:0"/>
	<stop  offset="1" style="stop-color:#2A2627;stop-opacity:0"/>
</radialGradient>
<ellipse fill="url(#SVGID_1_)" cx="128.18" cy="222.114" rx="48.15" ry="12.447"/>
<radialGradient id="SVGID_2_" cx="128.1797" cy="222.1133" r="35.1665" gradientTransform="matrix(1 0 0 0.3 0 155.4793)" gradientUnits="userSpaceOnUse">
	<stop  offset="0" style="stop-color:#FFFFFF;stop-opacity:0"/>
	<stop  offset="0.25" style="stop-color:#263238;stop-opacity:0.5"/>
	<stop  offset="0.375" style="stop-color:#272F34;stop-opacity:0.8"/>
	<stop  offset="0.5" style="stop-color:#282B2F;stop-opacity:0.5"/>
	<stop  offset="0.7" style="stop-color:#000000;stop-opacity:0"/>
	<stop  offset="1" style="stop-color:#2A2627;stop-opacity:0"/>
</radialGradient>
<ellipse fill="url(#SVGID_2_)" cx="128.18" cy="222.114" rx="48.15" ry="12.447"/>
<g id="XMLID_1_">
	<g>
		<path fill="#ECEFF1" d="M191.921,61.65c-13.19,5.29-36.99,8.82-64.15,8.82c-27.16,0-50.96-3.53-64.15-8.82
			c-6.95-2.79-10.96-6.06-10.96-9.57l1.29-11.4c0,9.99,33.05,18.08,73.82,18.08s73.82-8.09,73.82-18.08l1.29,11.4
			C202.881,55.59,198.871,58.86,191.921,61.65z"/>
		<path fill="#FAFAFA" d="M193.881,32.52c0-0.11,7.36,3,7.72,8.16h-0.01c0,9.99-33.05,18.08-73.82,18.08s-73.82-8.09-73.82-18.08
			c0.36-5.16,7.72-8.27,7.72-8.16l0.09,0.02l-1.39,5.58c0,9.11,30.17,16.5,67.4,16.5s67.4-7.39,67.4-16.5l-1.39-5.57L193.881,32.52z
			"/>
		<path fill="#ECEFF1" d="M193.781,32.55l1.39,5.57c0,9.11-30.17,16.5-67.4,16.5s-67.4-7.39-67.4-16.5l1.39-5.58l1.82-7.26
			c0,8.68,28.74,15.72,64.19,15.72c35.45,0,64.19-7.04,64.19-15.72L193.781,32.55z"/>
		<path fill="#ECEFF1" d="M188.571,94.58c-0.83,8.07-27.82,14.55-60.98,14.55c-31.23,0-56.98-5.75-60.56-13.16l-3.41-34.32
			c13.19,5.29,36.99,8.82,64.15,8.82c27.16,0,50.959-3.53,64.15-8.82l-3.271,32.94L188.571,94.58z"/>
		<path fill="#795548" d="M188.65,94.59l-6.18,62.22c-1.85,7.03-25.71,12.591-54.88,12.591c-27.63,0-50.5-4.99-54.41-11.49
			l-6.15-61.94c3.58,7.41,29.33,13.16,60.56,13.16c33.16,0,60.15-6.48,60.98-14.55L188.65,94.59z"/>
		<path fill="#ECEFF1" d="M182.471,156.81l-6.55,65.96c0,6.511-21.561,11.79-48.15,11.79c-26.59,0-48.15-5.279-48.15-11.79
			l-6.44-64.859c3.91,6.5,26.78,11.49,54.41,11.49C156.761,169.4,180.621,163.84,182.471,156.81z"/>
		<path fill="#FAFAFA" d="M127.771,9.56c35.45,0,64.19,7.04,64.19,15.72c0,8.68-28.74,15.72-64.19,15.72
			c-35.45,0-64.19-7.04-64.19-15.72C63.581,16.6,92.321,9.56,127.771,9.56z M173.761,27.27c1.4-1.1,2.16-2.28,2.16-3.5
			c0-6.51-21.561-11.79-48.15-11.79c-26.59,0-48.15,5.28-48.15,11.79c0,1.22,0.76,2.4,2.16,3.5c6.1,4.8,24.39,8.29,45.99,8.29
			S167.661,32.07,173.761,27.27z"/>
		<path fill="#ECEFF1" d="M175.921,23.77c0,1.22-0.76,2.4-2.16,3.5c-4.92-4.66-19.4-8.29-45.99-8.29c-26.59,0-37.75,2.63-45.99,8.29
			c-1.4-1.1-2.16-2.28-2.16-3.5c0-6.51,21.56-11.79,48.15-11.79C154.36,11.98,175.921,17.26,175.921,23.77z"/>
		<path fill="#FAFAFA" d="M173.761,27.27c-6.1,4.8-24.39,8.29-45.99,8.29s-39.89-3.49-45.99-8.29c8.24-5.66,19.4-8.29,45.99-8.29
			C154.36,18.98,168.841,22.61,173.761,27.27z"/>
	</g>
	<g>
		<path fill="none" stroke="#FFFFFF" stroke-miterlimit="10" d="M195.171,38.12c0,9.11-30.17,16.5-67.4,16.5s-67.4-7.39-67.4-16.5"
			/>
		<ellipse fill="none" stroke="#FFFFFF" stroke-miterlimit="10" cx="127.771" cy="25.28" rx="64.19" ry="15.72"/>
		<path fill="none" stroke="#FFFFFF" stroke-miterlimit="10" d="M81.781,27.27c-1.4-1.1-2.16-2.28-2.16-3.5
			c0-6.51,21.56-11.79,48.15-11.79c26.589,0,48.15,5.28,48.15,11.79c0,1.22-0.76,2.4-2.16,3.5c-6.1,4.8-24.39,8.29-45.99,8.29
			S87.881,32.07,81.781,27.27z"/>
		<polyline fill="none" stroke="#FFFFFF" stroke-miterlimit="10" points="60.371,38.12 61.761,32.54 63.581,25.28 		"/>
		<polyline fill="none" stroke="#FFFFFF" stroke-miterlimit="10" points="195.171,38.12 193.781,32.55 191.961,25.28 		"/>
		<path fill="none" stroke="#FFFFFF" stroke-miterlimit="10" d="M201.591,40.68c0,9.99-33.05,18.08-73.82,18.08
			s-73.82-8.09-73.82-18.08"/>
		<path fill="none" stroke="#FFFFFF" stroke-miterlimit="10" d="M53.951,40.68c0.36-5.16,7.72-8.27,7.72-8.16
			c0,0.01-0.13,0.08-0.42,0.21"/>
		<path fill="none" stroke="#FFFFFF" stroke-miterlimit="10" d="M201.601,40.68c-0.359-5.16-7.72-8.27-7.72-8.16
			c0,0.01,0.13,0.08,0.42,0.21"/>
		<path fill="none" stroke="#FFFFFF" stroke-miterlimit="10" d="M202.881,52.08c0,3.51-4.01,6.78-10.96,9.57
			c-13.19,5.29-36.99,8.82-64.15,8.82c-27.16,0-50.96-3.53-64.15-8.82c-6.95-2.79-10.96-6.06-10.96-9.57"/>
		<line fill="none" stroke="#FFFFFF" stroke-miterlimit="10" x1="52.661" y1="52.08" x2="53.951" y2="40.68"/>
		<line fill="none" stroke="#FFFFFF" stroke-miterlimit="10" x1="202.881" y1="52.08" x2="201.591" y2="40.68"/>
		<path fill="none" stroke="#FFFFFF" stroke-miterlimit="10" d="M175.921,222.77c0,6.511-21.561,11.79-48.15,11.79
			c-26.59,0-48.15-5.279-48.15-11.79"/>
		<polyline fill="none" stroke="#FFFFFF" stroke-miterlimit="10" points="79.621,222.77 73.181,157.91 67.031,95.97 63.621,61.65 
			63.581,61.28 		"/>
		<path fill="none" stroke="#FFFFFF" stroke-miterlimit="10" d="M81.781,27.27c8.24-5.66,19.4-8.29,45.99-8.29
			c26.589,0,41.07,3.63,45.99,8.29"/>
		<path fill="none" stroke="#FFFFFF" stroke-miterlimit="10" d="M182.591,155.93c0,0.301-0.04,0.59-0.12,0.88
			c-1.85,7.03-25.71,12.591-54.88,12.591c-27.63,0-50.5-4.99-54.41-11.49c-0.39-0.65-0.59-1.311-0.59-1.98"/>
		<polyline fill="none" stroke="#FFFFFF" stroke-miterlimit="10" points="175.921,222.77 182.471,156.81 188.65,94.59 
			191.921,61.65 191.961,61.28 		"/>
		<path fill="none" stroke="#FFFFFF" stroke-miterlimit="10" d="M188.591,94.19c0,0.13-0.01,0.26-0.02,0.39
			c-0.83,8.07-27.82,14.55-60.98,14.55c-31.23,0-56.98-5.75-60.56-13.16c-0.29-0.58-0.44-1.18-0.44-1.78"/>
	</g>
</g>
<g display="none">
	
		<ellipse transform="matrix(0.866 -0.5 0.5 0.866 -52.1917 82.4579)" display="inline" fill="#263238" cx="127.771" cy="138.619" rx="26.901" ry="18.166"/>
	<path display="inline" fill="none" stroke="#795548" stroke-miterlimit="10" d="M104.474,152.069
		c0-7.435,10.42-13.451,23.297-13.451"/>
	<path display="inline" fill="none" stroke="#795548" stroke-miterlimit="10" d="M151.067,125.168c0,7.435-10.42,13.45-23.297,13.45
		"/>
</g>
<g id="XMLID_3_">
	<g>
		<path fill="#FFF9C4" d="M124.26,124.145c0-3.036,1.504-5.495,3.364-5.495c1.825,0,3.293,2.459,3.293,5.495
			c0,6.907-1.333,12.559-3.036,13.079c-0.107-0.028-0.214-0.043-0.328-0.043c-0.086,0-0.171,0.008-0.25,0.021
			C125.593,136.575,124.26,130.966,124.26,124.145z"/>
		<path fill="#FFF9C4" d="M107.589,138.606c0-1.817,2.459-3.286,5.495-3.286c6.871,0,12.495,1.319,13.072,3.001v0.007
			c-0.021,0.086-0.028,0.186-0.028,0.278s0.007,0.192,0.028,0.278c0.007,0.007,0,0.007,0,0.007
			c-0.563,1.732-6.194,3.086-13.072,3.086C110.048,141.978,107.589,140.474,107.589,138.606z"/>
		<path fill="#FFF9C4" d="M142.093,135.32c3.037,0,5.496,1.504,5.496,3.364c0,1.817-2.459,3.293-5.496,3.293
			c-7.22,0-13.079-1.461-13.122-3.271c0-0.007,0-0.014,0-0.021c0-0.028,0-0.057,0.007-0.085
			C129.156,136.774,134.959,135.32,142.093,135.32z"/>
		<path fill="#FFFDE7" d="M127.624,137.267c-0.106,0-0.213-0.021-0.32-0.064c0.078-0.014,0.164-0.021,0.25-0.021
			c0.114,0,0.221,0.015,0.328,0.043C127.795,137.252,127.71,137.267,127.624,137.267z"/>
		<path fill="#FFFDE7" d="M127.624,137.267c0.086,0,0.171-0.015,0.257-0.043c0.627,0.143,1.098,0.706,1.098,1.376
			c-0.007,0.028-0.007,0.057-0.007,0.085c0,0.008,0,0.015,0,0.021c-0.05,0.741-0.67,1.326-1.418,1.326
			c-0.691,0-1.262-0.492-1.397-1.141c0,0,0.007,0,0-0.007c0.036-0.093,0.05-0.186,0.05-0.278s-0.015-0.186-0.05-0.278v-0.007
			c0.114-0.57,0.57-1.02,1.148-1.119C127.411,137.245,127.518,137.267,127.624,137.267z"/>
		<path fill="#FFFDE7" d="M126.156,138.328c0.036,0.093,0.05,0.186,0.05,0.278s-0.015,0.186-0.05,0.278
			c-0.021-0.086-0.028-0.186-0.028-0.278S126.135,138.414,126.156,138.328z"/>
		<path fill="#FFF9C4" d="M127.553,140.032c1.86,0,3.364,5.866,3.364,13.122c0,3.036-1.504,5.495-3.364,5.495
			c-1.818,0-3.293-2.459-3.293-5.495C124.26,145.898,125.735,140.032,127.553,140.032z"/>
	</g>
	<g>
	</g>
</g>
<g display="none">
	<path display="inline" fill="#FF8F00" d="M133.5,116.67l-1.87-1.34c-2.09,0-3.79,3.15-3.93,7.15c0.01-0.01,0.01-0.02,0.02-0.03
		C127.97,119.21,130.46,116.67,133.5,116.67z"/>
	<path display="inline" fill="#FF8F00" d="M152.69,139c0-10-9.421-18.14-21.061-18.14c-1.899,0-3.49,0.666-3.91,1.685
		c-0.02,0.18-0.029,0.312-0.029,0.502c0-0.11-0.011-0.253-0.04-0.363c-0.29-1.13-1.96-2.002-3.99-2.002
		c-11.641,0-21.061,8.024-21.061,17.944c0,11.43,11.23,20.888,25.091,20.888c13.859,0,25.09-9.514,25.09-20.514H152.69z
		 M134.596,127.34l5,8.66h-10L134.596,127.34z M120.596,127.34l5,8.66h-10L120.596,127.34z M128.18,149.667
		c-7.725,0-13.988-3.083-13.988-6.667h6.95l2.519,3.334l2.39-3.334h16.118C142.168,146.584,135.904,149.667,128.18,149.667z"/>
</g>
<g id="XMLID_2_">
	<g>
		<path fill="#FFFDE7" d="M139.328,120.004c3.188-3.189,7.351-4.192,9.304-2.238c1.916,1.916,0.876,6.041-2.312,9.229
			c-7.253,7.253-14.589,11.789-16.924,10.546c-0.083-0.142-0.18-0.269-0.3-0.389c-0.09-0.09-0.187-0.172-0.284-0.239
			C127.673,134.458,132.165,127.167,139.328,120.004z"/>
		<path fill="#FFFDE7" d="M106.633,117.683c1.909-1.909,6.033-0.868,9.222,2.321c7.216,7.215,11.737,14.506,10.577,16.879
			c0,0,0,0-0.008,0.008c-0.112,0.067-0.225,0.164-0.322,0.262s-0.194,0.21-0.262,0.321c0,0.016-0.008,0.008-0.008,0.008
			c-2.41,1.228-9.746-3.264-16.969-10.486C105.675,123.806,104.672,119.645,106.633,117.683z"/>
		<path fill="#FFFDE7" d="M146.319,150.469c3.188,3.188,4.191,7.35,2.238,9.304c-1.909,1.908-6.041,0.876-9.229-2.312
			c-7.583-7.583-12.201-15.271-10.345-17.217c0.007-0.007,0.015-0.015,0.022-0.022c0.03-0.029,0.06-0.06,0.098-0.082
			C131.207,138.41,138.826,142.976,146.319,150.469z"/>
		<path fill="#FFFDE7" d="M129.081,137.317c-0.113-0.112-0.203-0.247-0.27-0.404c0.097,0.067,0.194,0.149,0.284,0.239
			c0.12,0.12,0.217,0.247,0.3,0.389C129.275,137.481,129.171,137.407,129.081,137.317z"/>
		<path fill="#FFFDE7" d="M129.081,137.317c0.09,0.09,0.194,0.164,0.314,0.224c0.509,0.809,0.411,1.895-0.292,2.598
			c-0.038,0.022-0.067,0.053-0.098,0.082c-0.007,0.008-0.015,0.016-0.022,0.022c-0.831,0.727-2.096,0.689-2.882-0.097
			c-0.726-0.727-0.808-1.842-0.27-2.665c0,0,0.008,0.008,0.008-0.008c0.135-0.06,0.247-0.142,0.344-0.239
			c0.097-0.097,0.18-0.209,0.239-0.344c0.008-0.008,0.008-0.008,0.008-0.008c0.718-0.479,1.669-0.472,2.38,0.03
			C128.878,137.07,128.968,137.205,129.081,137.317z"/>
		<path fill="#FFFDE7" d="M126.423,136.891c-0.06,0.135-0.142,0.247-0.239,0.344c-0.097,0.098-0.209,0.18-0.344,0.239
			c0.067-0.111,0.165-0.224,0.262-0.321S126.311,136.958,126.423,136.891z"/>
		<path fill="#FFFDE7" d="M126.102,140.146c1.954,1.953-2.627,9.693-10.247,17.313c-3.188,3.188-7.351,4.191-9.304,2.237
			c-1.909-1.908-0.875-6.04,2.313-9.229C116.483,142.849,124.193,138.237,126.102,140.146z"/>
	</g>
	<g>
	</g>
</g>
</svg>
