<?xml version="1.0" encoding="utf-8"?>
<!-- Generator: Adobe Illustrator 16.0.4, SVG Export Plug-In . SVG Version: 6.00 Build 0)  -->
<!DOCTYPE svg PUBLIC "-//W3C//DTD SVG 1.1//EN" "http://www.w3.org/Graphics/SVG/1.1/DTD/svg11.dtd">
<svg version="1.1" id="Layer_1" xmlns="http://www.w3.org/2000/svg" xmlns:xlink="http://www.w3.org/1999/xlink" x="0px" y="0px"
	 width="256px" height="256px" viewBox="0 0 256 256" enable-background="new 0 0 256 256" xml:space="preserve">
<!--<radialGradient id="SVGID_1_" cx="128.1797" cy="222.1133" r="70" gradientTransform="matrix(1 0 0 0.3 0 155.4793)" gradientUnits="userSpaceOnUse">
	<stop  offset="0" style="stop-color:#FFFFFF;stop-opacity:0"/>
	<stop  offset="0.25" style="stop-color:#263238;stop-opacity:0.5"/>
	<stop  offset="0.375" style="stop-color:#272F34;stop-opacity:0.8"/>
	<stop  offset="0.5" style="stop-color:#282B2F;stop-opacity:0.5"/>
	<stop  offset="0.7" style="stop-color:#000000;stop-opacity:0"/>
	<stop  offset="1" style="stop-color:#2A2627;stop-opacity:0"/>
</radialGradient>
<g>
	<ellipse fill="url(#SVGID_1_)" cx="128.18" cy="222.114" rx="96.3" ry="24.88"/>
	<animateTransform attributeName="transform"
	attributeType = "xml"
	type = "scale"
	from = "1 1"
	to = "1.2 1.2"
	dur = "1s"
	repeatCount = "indefinite"
	/>
	<animateTransform attributeName="transform"
	attributeType = "xml"
	type = "translate"
	from = "0"
	to = "1"
	values = "0 0; -25 -20; -20 -20"
	dur = "1s"
	additive = "sum"
	repeatCount = "indefinite"
	/>
</g>
<radialGradient id="SVGID_2_" cx="128.1797" cy="222.1133" r="35.1665" gradientTransform="matrix(1 0 0 0.3 0 155.4793)" gradientUnits="userSpaceOnUse">
	<stop  offset="0" style="stop-color:#FFFFFF;stop-opacity:0"/>
	<stop  offset="0.25" style="stop-color:#263238;stop-opacity:0.5"/>
	<stop  offset="0.375" style="stop-color:#272F34;stop-opacity:0.8"/>
	<stop  offset="0.5" style="stop-color:#282B2F;stop-opacity:0.5"/>
	<stop  offset="0.7" style="stop-color:#000000;stop-opacity:0"/>
	<stop  offset="1" style="stop-color:#2A2627;stop-opacity:0"/>
</radialGradient>
<ellipse fill="url(#SVGID_2_)" cx="128.18" cy="222.114" rx="48.15" ry="12.447">

</ellipse>-->
<g>
	<g id="XMLID_1_">
		<g>
			<path fill="#ECEFF1" d="M191.921,61.65c-13.19,5.29-36.99,8.82-64.15,8.82c-27.16,0-50.96-3.53-64.15-8.82
			c-6.95-2.79-10.96-6.06-10.96-9.57l1.29-11.4c0,9.99,33.05,18.08,73.82,18.08s73.82-8.09,73.82-18.08l1.29,11.4
			C202.881,55.59,198.871,58.86,191.921,61.65z"/>
			<path fill="#FAFAFA" d="M193.881,32.52c0-0.11,7.36,3,7.72,8.16h-0.01c0,9.99-33.05,18.08-73.82,18.08s-73.82-8.09-73.82-18.08
			c0.36-5.16,7.72-8.27,7.72-8.16l0.09,0.02l-1.39,5.58c0,9.11,30.17,16.5,67.4,16.5s67.4-7.39,67.4-16.5l-1.39-5.57L193.881,32.52z
			"/>
			<path fill="#ECEFF1" d="M193.781,32.55l1.39,5.57c0,9.11-30.17,16.5-67.4,16.5s-67.4-7.39-67.4-16.5l1.39-5.58l1.82-7.26
			c0,8.68,28.74,15.72,64.19,15.72c35.45,0,64.19-7.04,64.19-15.72L193.781,32.55z"/>
			<path fill="#ECEFF1" d="M188.571,94.58c-0.83,8.07-27.82,14.55-60.98,14.55c-31.23,0-56.98-5.75-60.56-13.16l-3.41-34.32
			c13.19,5.29,36.99,8.82,64.15,8.82c27.16,0,50.959-3.53,64.15-8.82l-3.271,32.94L188.571,94.58z"/>
			<path fill="#795548" d="M188.65,94.59l-6.18,62.22c-1.85,7.03-25.71,12.591-54.88,12.591c-27.63,0-50.5-4.99-54.41-11.49
			l-6.15-61.94c3.58,7.41,29.33,13.16,60.56,13.16c33.16,0,60.15-6.48,60.98-14.55L188.65,94.59z"/>
			<path fill="#ECEFF1" d="M182.471,156.81l-6.55,65.96c0,6.511-21.561,11.79-48.15,11.79c-26.59,0-48.15-5.279-48.15-11.79
			l-6.44-64.859c3.91,6.5,26.78,11.49,54.41,11.49C156.761,169.4,180.621,163.84,182.471,156.81z"/>
			<path fill="#FAFAFA" d="M127.771,9.56c35.45,0,64.19,7.04,64.19,15.72c0,8.68-28.74,15.72-64.19,15.72
			c-35.45,0-64.19-7.04-64.19-15.72C63.581,16.6,92.321,9.56,127.771,9.56z M173.761,27.27c1.4-1.1,2.16-2.28,2.16-3.5
			c0-6.51-21.561-11.79-48.15-11.79c-26.59,0-48.15,5.28-48.15,11.79c0,1.22,0.76,2.4,2.16,3.5c6.1,4.8,24.39,8.29,45.99,8.29
			S167.661,32.07,173.761,27.27z"/>
			<path fill="#ECEFF1" d="M175.921,23.77c0,1.22-0.76,2.4-2.16,3.5c-4.92-4.66-19.4-8.29-45.99-8.29c-26.59,0-37.75,2.63-45.99,8.29
			c-1.4-1.1-2.16-2.28-2.16-3.5c0-6.51,21.56-11.79,48.15-11.79C154.36,11.98,175.921,17.26,175.921,23.77z"/>
			<path fill="#FAFAFA" d="M173.761,27.27c-6.1,4.8-24.39,8.29-45.99,8.29s-39.89-3.49-45.99-8.29c8.24-5.66,19.4-8.29,45.99-8.29
			C154.36,18.98,168.841,22.61,173.761,27.27z"/>
		</g>
		<g>
			<path fill="none" stroke="#FFFFFF" stroke-miterlimit="10" d="M195.171,38.12c0,9.11-30.17,16.5-67.4,16.5s-67.4-7.39-67.4-16.5"
			/>
			<ellipse fill="none" stroke="#FFFFFF" stroke-miterlimit="10" cx="127.771" cy="25.28" rx="64.19" ry="15.72"/>
			<path fill="none" stroke="#FFFFFF" stroke-miterlimit="10" d="M81.781,27.27c-1.4-1.1-2.16-2.28-2.16-3.5
			c0-6.51,21.56-11.79,48.15-11.79c26.589,0,48.15,5.28,48.15,11.79c0,1.22-0.76,2.4-2.16,3.5c-6.1,4.8-24.39,8.29-45.99,8.29
			S87.881,32.07,81.781,27.27z"/>
			<polyline fill="none" stroke="#FFFFFF" stroke-miterlimit="10" points="60.371,38.12 61.761,32.54 63.581,25.28 		"/>
			<polyline fill="none" stroke="#FFFFFF" stroke-miterlimit="10" points="195.171,38.12 193.781,32.55 191.961,25.28 		"/>
			<path fill="none" stroke="#FFFFFF" stroke-miterlimit="10" d="M201.591,40.68c0,9.99-33.05,18.08-73.82,18.08
			s-73.82-8.09-73.82-18.08"/>
			<path fill="none" stroke="#FFFFFF" stroke-miterlimit="10" d="M53.951,40.68c0.36-5.16,7.72-8.27,7.72-8.16
			c0,0.01-0.13,0.08-0.42,0.21"/>
			<path fill="none" stroke="#FFFFFF" stroke-miterlimit="10" d="M201.601,40.68c-0.359-5.16-7.72-8.27-7.72-8.16
			c0,0.01,0.13,0.08,0.42,0.21"/>
			<path fill="none" stroke="#FFFFFF" stroke-miterlimit="10" d="M202.881,52.08c0,3.51-4.01,6.78-10.96,9.57
			c-13.19,5.29-36.99,8.82-64.15,8.82c-27.16,0-50.96-3.53-64.15-8.82c-6.95-2.79-10.96-6.06-10.96-9.57"/>
			<line fill="none" stroke="#FFFFFF" stroke-miterlimit="10" x1="52.661" y1="52.08" x2="53.951" y2="40.68"/>
			<line fill="none" stroke="#FFFFFF" stroke-miterlimit="10" x1="202.881" y1="52.08" x2="201.591" y2="40.68"/>
			<path fill="none" stroke="#FFFFFF" stroke-miterlimit="10" d="M175.921,222.77c0,6.511-21.561,11.79-48.15,11.79
			c-26.59,0-48.15-5.279-48.15-11.79"/>
			<polyline fill="none" stroke="#FFFFFF" stroke-miterlimit="10" points="79.621,222.77 73.181,157.91 67.031,95.97 63.621,61.65
			63.581,61.28 		"/>
			<path fill="none" stroke="#FFFFFF" stroke-miterlimit="10" d="M81.781,27.27c8.24-5.66,19.4-8.29,45.99-8.29
			c26.589,0,41.07,3.63,45.99,8.29"/>
			<path fill="none" stroke="#FFFFFF" stroke-miterlimit="10" d="M182.591,155.93c0,0.301-0.04,0.59-0.12,0.88
			c-1.85,7.03-25.71,12.591-54.88,12.591c-27.63,0-50.5-4.99-54.41-11.49c-0.39-0.65-0.59-1.311-0.59-1.98"/>
			<polyline fill="none" stroke="#FFFFFF" stroke-miterlimit="10" points="175.921,222.77 182.471,156.81 188.65,94.59
			191.921,61.65 191.961,61.28 		"/>
			<path fill="none" stroke="#FFFFFF" stroke-miterlimit="10" d="M188.591,94.19c0,0.13-0.01,0.26-0.02,0.39
			c-0.83,8.07-27.82,14.55-60.98,14.55c-31.23,0-56.98-5.75-60.56-13.16c-0.29-0.58-0.44-1.18-0.44-1.78"/>
		</g>
	</g>
	<g>

		<ellipse transform="matrix(0.866 -0.5 0.5 0.866 -52.1917 82.4579)" fill="#263238" cx="127.771" cy="138.619" rx="26.901" ry="18.166"/>
		<path fill="none" stroke="#795548" stroke-miterlimit="10" d="M104.474,152.069c0-7.435,10.42-13.451,23.297-13.451"/>
		<path fill="none" stroke="#795548" stroke-miterlimit="10" d="M151.067,125.168c0,7.435-10.42,13.45-23.297,13.45"/>
	</g>
	<!--<animateTransform attributeName="transform"
	attributeType = "xml"
	type = "translate"
	from = "0"
	to = "1"
	values = "0 -250;0 -220; 0 -170; 0 -100; 0 0 ; 0 0 ; 0 0; 0 0"
	dur = "8s"
	/>
	<animateTransform attributeName="transform"
	attributeType = "xml"
	type = "rotate"
	value = "0; -4; 4; 0"
	begin = "7s"
	dur = "1s"
	additive = "sum"
	/>-->
</g>
</svg>
