<?xml version="1.0" encoding="utf-8"?>
<!-- Generator: Adobe Illustrator 16.0.4, SVG Export Plug-In . SVG Version: 6.00 Build 0)  -->
<!DOCTYPE svg PUBLIC "-//W3C//DTD SVG 1.1//EN" "http://www.w3.org/Graphics/SVG/1.1/DTD/svg11.dtd">
<svg version="1.1" id="Layer_1" xmlns="http://www.w3.org/2000/svg" xmlns:xlink="http://www.w3.org/1999/xlink" x="0px" y="0px"
	 width="24px" height="24px" viewBox="0 0 24 24" enable-background="new 0 0 24 24" xml:space="preserve">
<path d="M9.3,1.5c4.307,0,7.8,3.492,7.8,7.8c0,1.932-0.709,3.708-1.874,5.077l0.325,0.324H16.5l6,6L20.7,22.5l-6-6v-0.949
	l-0.323-0.324C13.008,16.393,11.232,17.1,9.3,17.1c-4.308,0-7.8-3.492-7.8-7.799C1.5,4.992,4.992,1.5,9.3,1.5 M9.3,3.9
	c-3,0-5.4,2.4-5.4,5.4c0,3,2.4,5.401,5.4,5.401c3,0,5.4-2.401,5.4-5.401C14.7,6.3,12.3,3.9,9.3,3.9z"/>
</svg>
